HIERARCHY
ROOT Hips
{
	OFFSET 0.000000 0.000000 0.000000
	CHANNELS 6 Xposition Yposition Zposition Xrotation Yrotation Zrotation
	JOINT Chest
	{
		OFFSET 0.000000 0.009282 11.569106
		CHANNELS 3 Xrotation Yrotation Zrotation
		JOINT Chest2
		{
			OFFSET 0.000000 -0.016863 9.269641
			CHANNELS 3 Xrotation Yrotation Zrotation
			JOINT Chest3
			{
				OFFSET 0.000000 0.000000 8.374491
				CHANNELS 3 Xrotation Yrotation Zrotation
				JOINT Chest4
				{
					OFFSET 0.000000 0.000000 8.374493
					CHANNELS 3 Xrotation Yrotation Zrotation
					JOINT Neck
					{
						OFFSET 0.000000 -0.000001 12.152554
						CHANNELS 3 Xrotation Yrotation Zrotation
						JOINT Head
						{
							OFFSET 0.000000 -0.040100 7.802319
							CHANNELS 3 Xrotation Yrotation Zrotation
							End Site
							{
								OFFSET 0.000000 -0.020946 14.853096
							}
						}
					}
					JOINT RightCollar
					{
						OFFSET -2.894404 0.000000 6.791374
						CHANNELS 3 Xrotation Yrotation Zrotation
						JOINT RightShoulder
						{
							OFFSET -13.574684 0.000000 0.000000
							CHANNELS 3 Xrotation Yrotation Zrotation
							JOINT RightElbow
							{
								OFFSET -23.923903 0.000000 0.000000
								CHANNELS 3 Xrotation Yrotation Zrotation
								JOINT RightWrist
								{
									OFFSET -19.846718 -0.012765 0.000000
									CHANNELS 3 Xrotation Yrotation Zrotation
									End Site
									{
										OFFSET -14.973145 0.000000 0.000000
									}
								}
							}
						}
					}
					JOINT LeftCollar
					{
						OFFSET 2.894404 0.000000 6.791374
						CHANNELS 3 Xrotation Yrotation Zrotation
						JOINT LeftShoulder
						{
							OFFSET 13.574684 0.000000 0.000000
							CHANNELS 3 Xrotation Yrotation Zrotation
							JOINT LeftElbow
							{
								OFFSET 23.923903 0.000000 0.000000
								CHANNELS 3 Xrotation Yrotation Zrotation
								JOINT LeftWrist
								{
									OFFSET 19.846718 -0.012765 0.000000
									CHANNELS 3 Xrotation Yrotation Zrotation
									End Site
									{
										OFFSET 14.973145 0.000000 0.000000
									}
								}
							}
						}
					}
				}
			}
		}
	}
	JOINT RightHip
	{
		OFFSET -9.469263 -0.004642 0.045487
		CHANNELS 3 Xrotation Yrotation Zrotation
		JOINT RightKnee
		{
			OFFSET 0.000000 -0.002666 -40.478676
			CHANNELS 3 Xrotation Yrotation Zrotation
			JOINT RightAnkle
			{
				OFFSET 0.000000 -0.049110 -35.224068
				CHANNELS 3 Xrotation Yrotation Zrotation
				JOINT RightToe
				{
					OFFSET 0.000000 -12.539530 -6.151390
					CHANNELS 3 Xrotation Yrotation Zrotation
					End Site
					{
						OFFSET 0.000000 -5.044995 -1.291870
					}
				}
			}
		}
	}
	JOINT LeftHip
	{
		OFFSET 9.469263 -0.004642 0.045487
		CHANNELS 3 Xrotation Yrotation Zrotation
		JOINT LeftKnee
		{
			OFFSET 0.000000 -0.002666 -40.478676
			CHANNELS 3 Xrotation Yrotation Zrotation
			JOINT LeftAnkle
			{
				OFFSET 0.000000 -0.049110 -35.224068
				CHANNELS 3 Xrotation Yrotation Zrotation
				JOINT LeftToe
				{
					OFFSET 0.000000 -12.539530 -6.151390
					CHANNELS 3 Xrotation Yrotation Zrotation
					End Site
					{
						OFFSET 0.000000 -5.044995 -1.291870
					}
				}
			}
		}
	}
}
MOTION
Frames: 8
Frame Time: 0.016667
-10.552760 -3.548723 82.945526 2.790003 5.901793 -113.948155 0.526508 2.033340 3.050330 0.245748 0.896952 1.361150 0.245750 0.896952 1.361149 0.186308 0.672170 1.021204 16.169472 -3.032376 -13.993712 -5.519600 -0.625993 -26.560106 -5.855725 -6.898182 0.956611 -55.802857 -53.952460 19.366499 -41.209533 -54.130151 44.787121 -62.024750 36.362896 45.348279 0.249578 10.323440 -2.439235 -56.733061 43.531705 44.854173 -11.083100 -2.377738 -14.250182 -22.952902 -63.980861 -77.639122 10.113322 -1.149952 1.241455 0.835258 0.109382 3.179991 -5.016462 0.134524 -4.420502 0.007242 0.009944 -0.026853 9.946051 0.315418 2.613907 1.365201 -0.566802 6.152801 -4.897829 0.005683 -0.614267 0.020269 -0.003437 0.025166 
-10.552055 -3.549980 82.946121 2.794914 5.903557 -113.948565 0.524339 2.042186 3.060550 0.244560 0.900401 1.365595 0.244559 0.900400 1.365598 0.185428 0.674757 1.024537 16.180867 -3.044337 -14.000884 -5.500070 -0.647452 -26.577169 -5.850768 -6.901970 0.902307 -55.792141 -53.991430 19.341909 -41.178145 -54.098144 44.808288 -62.049277 36.285923 45.280596 0.270416 10.323800 -2.469494 -56.737091 43.510272 44.857202 -11.099046 -2.363680 -14.244551 -22.976698 -63.963547 -77.691257 10.109623 -1.150678 1.235121 0.848624 0.105823 3.182526 -5.018267 0.136123 -4.429968 0.004998 0.009478 -0.026667 9.945765 0.313899 2.612903 1.371569 -0.570120 6.154772 -4.901428 0.004557 -0.613693 0.020568 -0.003262 0.024939 
-10.551950 -3.550858 82.946083 2.800276 5.907610 -113.945375 0.518500 2.048357 3.060171 0.241617 0.903069 1.365113 0.241617 0.903070 1.365107 0.183227 0.676768 1.024166 16.197360 -3.045285 -13.996133 -5.470610 -0.653962 -26.568647 -5.848249 -6.916763 0.887254 -55.754998 -54.008850 19.326104 -41.198772 -54.077545 44.775350 -62.025119 36.167508 45.166777 0.270259 10.335808 -2.476727 -56.750707 43.469451 44.871184 -11.108825 -2.341614 -14.238889 -22.998470 -63.953015 -77.727799 10.111649 -1.151502 1.228243 0.856350 0.100366 3.176178 -5.018921 0.138762 -4.399828 0.004282 0.009224 -0.026750 9.949157 0.309425 2.613969 1.375682 -0.567761 6.144094 -4.905190 0.000227 -0.603747 0.021711 -0.003472 0.025543 
-10.552213 -3.551143 82.945869 2.804925 5.914556 -113.942821 0.512347 2.053303 3.060738 0.238804 0.905527 1.365019 0.238803 0.905527 1.365025 0.181124 0.678617 1.024098 16.213303 -3.044621 -13.992791 -5.441679 -0.656997 -26.562172 -5.845105 -6.930325 0.878514 -55.719969 -54.008522 19.317614 -41.236960 -54.032694 44.699364 -62.005926 36.065960 45.052201 0.272800 10.343960 -2.478980 -56.769855 43.451905 44.882314 -11.119929 -2.334468 -14.230241 -23.037685 -63.957010 -77.749546 10.114581 -1.150533 1.230349 0.868189 0.096112 3.154792 -5.022859 0.141206 -4.387610 0.004102 0.007979 -0.026617 9.954852 0.306736 2.608577 1.380322 -0.565710 6.137022 -4.908901 -0.003154 -0.591746 0.022445 -0.004151 0.025941 
-10.552594 -3.552458 82.945999 2.810426 5.929554 -113.937603 0.509011 2.058932 3.055475 0.237504 0.908180 1.362491 0.237503 0.908180 1.362491 0.180149 0.680610 1.022201 16.229294 -3.041335 -13.979427 -5.413430 -0.658581 -26.536528 -5.836912 -6.940103 0.870661 -55.711012 -54.004069 19.304346 -41.269683 -53.956640 44.597403 -61.997470 36.062122 45.018839 0.271931 10.347324 -2.447833 -56.759849 43.466197 44.867615 -11.134571 -2.332231 -14.220321 -23.066782 -63.966839 -77.770685 10.123112 -1.148444 1.241916 0.884362 0.092905 3.136112 -5.028161 0.145235 -4.375254 0.003408 0.006390 -0.026231 9.966215 0.308646 2.587963 1.388004 -0.567194 6.142323 -4.912313 -0.005576 -0.578140 0.022059 -0.004437 0.025422 
-10.551368 -3.555029 82.946503 2.817482 5.948669 -113.921681 0.504324 2.064876 3.049862 0.235892 0.910891 1.359087 0.235891 0.910890 1.359092 0.178942 0.682647 1.019647 16.246942 -3.037007 -13.965159 -5.382058 -0.658910 -26.508867 -5.824090 -6.951811 0.872374 -55.717999 -53.988148 19.275583 -41.328757 -53.879059 44.467076 -61.997893 36.109748 45.033292 0.287717 10.345236 -2.425340 -56.736172 43.486909 44.840936 -11.131070 -2.342767 -14.204422 -23.094809 -63.962071 -77.803177 10.130989 -1.145989 1.234005 0.909766 0.088375 3.122801 -5.036532 0.148713 -4.385247 0.001297 0.004916 -0.025488 9.976496 0.310988 2.552331 1.401415 -0.572575 6.154010 -4.916380 -0.006947 -0.568134 0.022284 -0.003949 0.024913 
-10.548708 -3.557909 82.947151 2.828242 5.972225 -113.918109 0.498174 2.069129 3.061807 0.233474 0.912893 1.364016 0.233475 0.912891 1.364017 0.177142 0.684153 1.023336 16.265503 -3.034835 -13.960838 -5.348128 -0.660051 -26.500027 -5.796453 -6.962186 0.856085 -55.720567 -53.972858 19.236073 -41.412629 -53.811625 44.340027 -61.981228 36.160541 45.028405 0.320255 10.360945 -2.465941 -56.706122 43.476162 44.817239 -11.115012 -2.361583 -14.194455 -23.099848 -63.950433 -77.826249 10.138955 -1.147746 1.235809 0.942808 0.089028 3.128518 -5.046657 0.153024 -4.368926 -0.000306 0.003669 -0.024575 9.992481 0.312884 2.541554 1.415104 -0.576178 6.155748 -4.920633 -0.009816 -0.560502 0.021997 -0.002926 0.024236 
-10.543329 -3.561054 82.947723 2.838785 5.997256 -113.916135 0.491771 2.072643 3.065393 0.230918 0.914810 1.364978 0.230920 0.914810 1.364976 0.175231 0.685596 1.024056 16.282874 -3.029130 -13.950871 -5.316460 -0.656423 -26.479723 -5.772513 -6.975801 0.853239 -55.716370 -53.964587 19.205278 -41.533240 -53.738146 44.186239 -61.929004 36.152253 44.972998 0.350478 10.380914 -2.470330 -56.670810 43.470684 44.780151 -11.089419 -2.368664 -14.185284 -23.138063 -63.940488 -77.874559 10.141380 -1.139658 1.253322 0.985090 0.073526 3.130546 -5.060417 0.166798 -4.400672 -0.000706 0.001642 -0.023359 10.005694 0.317395 2.536386 1.433541 -0.584317 6.163764 -4.924996 -0.009325 -0.559927 0.021443 -0.001791 0.023402 
